<svg xmlns="http://www.w3.org/2000/svg" width="3000" height="500" viewBox="0 0 3000 500" version="1.1"><path d="" stroke="none" fill="#10946c" fill-rule="evenodd"/><path d="M 1036 127 L 1036 143 1055 143 L 1074 143 1074 127 L 1074 111 1055 111 L 1036 111 1036 127 M 1189 216.500 L 1189 308 1208.471 308 L 1227.941 308 1228.221 246.750 C 1228.481 189.652, 1228.622 185.320, 1230.303 182.845 C 1233.590 178.003, 1240.517 178.450, 1242.890 183.657 C 1243.665 185.358, 1244 204.506, 1244 247.047 L 1244 308 1263.534 308 L 1283.067 308 1282.784 241.250 L 1282.500 174.500 1280.106 168.500 C 1274.985 155.667, 1264.319 149.208, 1249.947 150.236 C 1241.692 150.827, 1235.874 153.819, 1231.297 159.828 L 1228 164.155 1228 144.578 L 1228 125 1208.500 125 L 1189 125 1189 216.500 M 1814 141.500 L 1814 158 1809 158 L 1804 158 1804 172.500 L 1804 187 1808.936 187 L 1813.873 187 1814.253 239.750 C 1814.526 277.691, 1814.976 293.544, 1815.855 296.219 C 1817.381 300.863, 1821.279 305.571, 1825.369 307.708 C 1829.525 309.880, 1847.353 310.513, 1855.500 308.778 L 1861.500 307.500 1861.779 294.250 L 1862.058 281 1857.636 281 C 1854.526 281, 1853.034 280.531, 1852.607 279.418 C 1852.273 278.548, 1852 257.398, 1852 232.418 L 1852 187 1857 187 L 1862 187 1862 172.500 L 1862 158 1857 158 L 1852 158 1852 141.500 L 1852 125 1833 125 L 1814 125 1814 141.500 M 1977 216.500 L 1977 308 1996.500 308 L 2016 308 2016 216.500 L 2016 125 1996.500 125 L 1977 125 1977 216.500 M 1118.209 151.525 C 1093.118 156.973, 1080.917 176.242, 1086.363 201.818 C 1089.031 214.349, 1093.209 219.444, 1114.017 235.541 C 1136.461 252.903, 1139.785 257.521, 1138.757 269.912 C 1138.209 276.521, 1134.543 280.591, 1130.109 279.510 C 1124.357 278.108, 1123.530 276.077, 1123.168 262.475 L 1122.837 250 1103.825 250 L 1084.812 250 1085.207 264.250 C 1085.521 275.578, 1086.035 279.672, 1087.712 284.213 C 1091.971 295.742, 1100.216 303.699, 1112 307.654 C 1119.873 310.297, 1142.188 310.285, 1150 307.634 C 1166.085 302.176, 1175.447 290.960, 1178.071 274.002 C 1180.445 258.661, 1177.182 243.780, 1169.034 232.782 C 1163.737 225.631, 1158.890 221.428, 1139 206.734 C 1125.833 197.007, 1123.727 194.398, 1123.727 187.809 C 1123.727 182.914, 1126.254 180, 1130.500 180 C 1135.477 180, 1137.220 182.751, 1137.781 191.494 L 1138.263 199 1158.132 199 L 1178 199 1177.992 194.750 C 1177.960 176.618, 1170.324 161.838, 1157.631 155.339 C 1147.747 150.278, 1131.285 148.686, 1118.209 151.525 M 1475 151.142 C 1467.855 152.323, 1458.347 156.806, 1454.205 160.949 C 1447.788 167.365, 1444.052 178.846, 1444.017 192.250 L 1444 199 1462.500 199 L 1481 199 1481.006 193.750 C 1481.018 182.303, 1484.657 177.373, 1491.119 180.049 C 1494.889 181.611, 1496 185.487, 1496 197.077 L 1496 206.856 1490.750 208.791 C 1487.862 209.856, 1481.675 211.968, 1477 213.486 C 1448.436 222.762, 1440.945 234.620, 1442.300 268.419 C 1443.099 288.359, 1446.508 298.472, 1454.477 304.550 C 1461.150 309.640, 1475.060 311.673, 1482.355 308.625 C 1487.182 306.608, 1492.519 301.549, 1494.905 296.729 L 1496.998 292.500 1496.999 300.250 L 1497 308 1516 308 L 1535 308 1535 247.136 C 1535 210.147, 1534.602 184.174, 1533.985 180.921 C 1529.606 157.830, 1506.162 145.995, 1475 151.142 M 1652.558 151.492 C 1647.375 153.339, 1644.206 155.766, 1640.250 160.921 L 1637 165.155 1637 158.578 L 1637 152 1617.500 152 L 1598 152 1598 243 L 1598 334 1617.500 334 L 1637 334 1637.040 314.250 C 1637.078 295.643, 1637.171 294.674, 1638.659 297.500 C 1642.894 305.548, 1650.082 309.943, 1659.068 309.978 C 1676.031 310.045, 1687.107 299.536, 1690.577 280.084 C 1692.500 269.307, 1692.502 187.704, 1690.580 176.931 C 1688.061 162.814, 1682.588 154.758, 1673.252 151.427 C 1668.358 149.680, 1657.548 149.714, 1652.558 151.492 M 1735 151.142 C 1727.855 152.323, 1718.347 156.806, 1714.205 160.949 C 1707.788 167.365, 1704.052 178.846, 1704.017 192.250 L 1704 199 1722.500 199 L 1741 199 1741.006 193.750 C 1741.018 182.303, 1744.657 177.373, 1751.119 180.049 C 1754.889 181.611, 1756 185.487, 1756 197.077 L 1756 206.856 1750.750 208.791 C 1747.862 209.856, 1741.675 211.968, 1737 213.486 C 1708.436 222.762, 1700.945 234.620, 1702.300 268.419 C 1703.099 288.359, 1706.508 298.472, 1714.477 304.550 C 1721.150 309.640, 1735.060 311.673, 1742.355 308.625 C 1747.182 306.608, 1752.519 301.549, 1754.905 296.729 L 1756.998 292.500 1756.999 300.250 L 1757 308 1776 308 L 1795 308 1795 247.136 C 1795 210.147, 1794.602 184.174, 1793.985 180.921 C 1789.606 157.830, 1766.162 145.995, 1735 151.142 M 1904.402 151.486 C 1888.365 154.975, 1877.445 165.140, 1873.395 180.350 C 1871.709 186.682, 1871.412 263.784, 1873.035 273.787 C 1875.850 291.133, 1885.047 303.436, 1898.294 307.575 C 1905.308 309.767, 1922.058 310.540, 1930.620 309.067 C 1953.739 305.090, 1963.675 290.310, 1964.278 259 L 1964.500 247.500 1945.905 247.229 L 1927.310 246.957 1926.659 259.817 C 1925.724 278.293, 1924.460 280.754, 1916.378 279.828 C 1911.321 279.249, 1910.541 275.969, 1910.175 253.750 L 1909.850 234 1936.775 234 L 1963.701 234 1964.350 224.846 C 1967.315 183.074, 1961.987 164.108, 1944.848 155.423 C 1934.715 150.288, 1917.575 148.620, 1904.402 151.486 M 933 152.894 C 933 154.081, 956.874 302.858, 957.529 305.750 C 958.038 307.999, 958.045 308, 979.940 308 L 1001.841 308 1002.411 305.250 C 1003.689 299.085, 1027 155.548, 1027 153.844 C 1027 152.117, 1025.796 152, 1008 152 C 994.249 152, 989 152.321, 989 153.160 C 989 155.102, 979.874 248.460, 979.663 248.670 C 979.555 248.778, 977.760 228.534, 975.674 203.683 C 973.587 178.832, 971.632 157.037, 971.329 155.250 L 970.777 152 951.889 152 C 941.460 152, 933 152.400, 933 152.894 M 1036 230 L 1036 308 1055 308 L 1074 308 1074 230 L 1074 152 1055 152 L 1036 152 1036 230 M 1295 154.418 C 1295 155.747, 1299.050 190.209, 1304 231 C 1308.950 271.791, 1313 305.803, 1313 306.582 C 1313 307.760, 1316.519 308, 1333.828 308 L 1354.657 308 1359.050 268 C 1361.466 246, 1363.684 228, 1363.978 228 C 1364.273 228, 1366.771 245.887, 1369.530 267.750 L 1374.547 307.500 1394.709 307.771 L 1414.871 308.041 1415.466 303.771 C 1415.794 301.422, 1419.859 268.225, 1424.500 230 C 1429.141 191.775, 1433.205 158.588, 1433.531 156.250 L 1434.123 152 1417.623 152 L 1401.123 152 1400.540 156.250 C 1400.219 158.588, 1398.365 176.014, 1396.419 194.976 C 1394.474 213.938, 1392.786 229.547, 1392.670 229.664 C 1392.553 229.780, 1390.246 212.354, 1387.543 190.938 L 1382.629 152 1364.423 152 C 1346.362 152, 1346.213 152.018, 1345.701 154.250 C 1345.417 155.488, 1343.465 172.839, 1341.363 192.808 C 1339.261 212.778, 1337.269 228.078, 1336.935 226.808 C 1336.602 225.539, 1334.353 208.188, 1331.936 188.250 L 1327.543 152 1311.272 152 L 1295 152 1295 154.418 M 1912.924 181.579 C 1910.611 184.039, 1910.484 184.864, 1910.160 199.579 L 1909.821 215 1918.410 215 L 1927 215 1926.980 205.250 C 1926.954 192.698, 1925.574 183.291, 1923.406 180.897 C 1920.886 178.112, 1915.877 178.438, 1912.924 181.579 M 1640.138 182.552 C 1637.145 186.356, 1636.831 191.871, 1637.181 234.500 C 1637.524 276.396, 1637.768 278.402, 1642.671 279.632 C 1646.132 280.501, 1649.776 279.267, 1651.221 276.738 C 1652.183 275.055, 1652.581 264.833, 1652.827 235.500 C 1653.191 192.183, 1652.788 184.788, 1649.911 181.911 C 1647.148 179.148, 1642.580 179.447, 1640.138 182.552 M 1490.572 229.158 C 1481.700 235.175, 1481.540 235.632, 1481.219 255.820 C 1480.959 272.185, 1481.090 273.746, 1482.990 276.809 C 1484.800 279.728, 1485.482 280.082, 1488.771 279.809 C 1491.933 279.547, 1492.769 278.950, 1494.269 275.883 C 1495.832 272.686, 1496.006 269.572, 1495.769 249.041 L 1495.500 225.816 1490.572 229.158 M 1750.572 229.158 C 1741.700 235.175, 1741.540 235.632, 1741.219 255.820 C 1740.959 272.185, 1741.090 273.746, 1742.990 276.809 C 1744.800 279.728, 1745.482 280.082, 1748.771 279.809 C 1751.933 279.547, 1752.769 278.950, 1754.269 275.883 C 1755.832 272.686, 1756.006 269.572, 1755.769 249.041 L 1755.500 225.816 1750.572 229.158 M 2092.459 262.303 C 2081.313 267.634, 2075.615 280.408, 2078.996 292.484 C 2080.515 297.913, 2086.746 305.319, 2092.082 308.042 C 2096.853 310.476, 2107.425 310.684, 2112.782 308.449 C 2121.850 304.667, 2127.342 296.055, 2127.416 285.500 C 2127.473 277.473, 2125.577 272.644, 2120.297 267.364 C 2115.466 262.533, 2111.359 260.751, 2104.008 260.295 C 2098.649 259.963, 2096.610 260.318, 2092.459 262.303" stroke="none" fill="#0c946c" fill-rule="evenodd"/></svg>